<svg width="130" height="130" viewBox="0 0 130 130" fill="none" xmlns="http://www.w3.org/2000/svg">
<rect width="130" height="130" rx="12" fill="#455A64"/>
<path d="M65.5016 91.3631C62.8235 91.3631 60.6529 89.1909 60.6529 86.5144V75.8277C60.6529 74.4943 61.2024 73.2191 62.1721 72.3011L77.6122 57.7241C80.6394 54.5789 82.3041 50.4478 82.3041 46.0775V45.5005C82.3041 40.9313 80.502 36.658 77.2275 33.4675C73.9546 30.277 69.6424 28.5686 65.0539 28.7044C56.0353 28.9372 48.6975 36.6903 48.6975 45.9886C48.6975 48.6667 46.5269 50.8373 43.8487 50.8373C41.1706 50.8373 39 48.6667 39 45.9886C39 31.4779 50.5756 19.377 64.8034 19.0102C72.0232 18.813 78.8324 21.4927 83.9947 26.5225C89.157 31.5539 92 38.2936 92 45.5005V46.0775C92 53.0192 89.3348 59.5828 84.4909 64.5576C84.444 64.6061 84.3939 64.6546 84.3455 64.7015L70.3504 77.9175V86.5144C70.3504 89.1925 68.1797 91.3631 65.5016 91.3631Z" fill="white"/>
<path d="M65.5021 110.713C65.0819 110.713 64.6617 110.679 64.2414 110.6C63.8212 110.503 63.4171 110.39 63.0292 110.228C62.6413 110.066 62.2696 109.858 61.914 109.632C61.5585 109.389 61.2352 109.129 60.9281 108.823C59.7321 107.626 59.0371 105.961 59.0371 104.248C59.0371 103.826 59.0856 103.406 59.1664 102.987C59.2472 102.583 59.3765 102.163 59.5381 101.775C59.6998 101.387 59.8937 101.015 60.12 100.66C60.3624 100.304 60.6372 99.981 60.9281 99.6755C61.2352 99.3829 61.5585 99.1082 61.914 98.8835C62.2696 98.6411 62.6413 98.4471 63.0292 98.2855C63.4171 98.1239 63.8212 97.9946 64.2414 97.9154C65.0657 97.7522 65.9385 97.7522 66.7628 97.9154C67.183 97.9962 67.5871 98.1255 67.975 98.2855C68.3612 98.4488 68.7346 98.6411 69.0886 98.8835C69.4441 99.1098 69.7674 99.3846 70.0745 99.6755C70.3654 99.981 70.6401 100.306 70.8826 100.66C71.1089 101.017 71.3028 101.387 71.4628 101.775C71.6261 102.163 71.7554 102.583 71.8346 102.987C71.9154 103.407 71.9639 103.828 71.9639 104.248C71.9639 105.961 71.2673 107.626 70.0728 108.822C68.8639 110.034 67.1992 110.713 65.5021 110.713Z" fill="white"/>
</svg>
