<svg width="42" height="53" viewBox="0 0 42 53" fill="none" xmlns="http://www.w3.org/2000/svg">
<path d="M15.4664 28.8082C10.9985 28.8082 7.34277 25.1525 7.34277 20.6846V17.7711C7.34277 13.3032 10.9985 9.64746 15.4664 9.64746C19.9343 9.64746 23.5901 13.3032 23.5901 17.7711V20.6846C23.5901 25.1531 19.9343 28.8082 15.4664 28.8082Z" fill="#455A64"/>
<path d="M20.041 29.9243C18.6669 30.6358 17.1136 31.0454 15.4666 31.0454C13.8197 31.0454 12.2664 30.6358 10.8923 29.9243C4.75063 30.8412 0 36.1707 0 42.5566V50.9595C0 51.7286 0.629462 52.3575 1.39796 52.3575H29.5341C30.3032 52.3575 30.9321 51.728 30.9321 50.9595V42.5566C30.9332 36.1707 26.1826 30.8412 20.041 29.9243Z" fill="#455A64"/>
<path d="M30.7532 20.2764C29.3791 20.9879 27.8258 21.3974 26.1789 21.3974C26.1766 21.3974 26.1748 21.3974 26.1725 21.3974C26.0014 23.9641 24.931 26.2848 23.2666 28.0469C29.2907 30.1884 33.5509 35.9873 33.5509 42.5565V42.7095H40.2475C41.0166 42.7095 41.6461 42.0801 41.6461 41.311V32.9087C41.6455 26.5221 36.8949 21.1926 30.7532 20.2764Z" fill="#455A64"/>
<path d="M26.179 0C21.9659 0 18.4783 3.25144 18.0938 7.36913C22.7478 8.54602 26.2075 12.7568 26.2075 17.7715V19.159C30.662 19.1433 34.3021 15.4951 34.3021 11.0371V8.12367C34.3027 3.65577 30.6469 0 26.179 0Z" fill="#455A64"/>
</svg>
